<svg height="512" viewBox="0 0 512 512" width="512" xmlns="http://www.w3.org/2000/svg"><g id="flat"><path d="m352.449 432.356h66a14 14 0 0 1 14 14v18a0 0 0 0 1 0 0h-80a0 0 0 0 1 0 0v-32a0 0 0 0 1 0 0z" fill="#0296e5" transform="matrix(-.705 -.709 .709 -.705 351.284 1042.783)"/><path d="m354.932 381.429h50a14 14 0 0 1 14 14v18a0 0 0 0 1 0 0h-50a14 14 0 0 1 -14-14v-18a0 0 0 0 1 0 0z" fill="#0276b4" transform="matrix(-.705 -.709 .709 -.705 377.986 952.033)"/><path d="m341.415 330.5h80a0 0 0 0 1 0 0v32a0 0 0 0 1 0 0h-66a14 14 0 0 1 -14-14v-18a0 0 0 0 1 0 0z" fill="#0296e5" transform="matrix(-.705 -.709 .709 -.705 404.688 861.282)"/><path d="m34.282 436.307h80a0 0 0 0 1 0 0v18a14 14 0 0 1 -14 14h-66a0 0 0 0 1 0 0v-32a0 0 0 0 1 0 0z" fill="#02a437" transform="matrix(.84 -.543 .543 .84 -233.51 112.655)"/><path d="m72.522 387.724h50a0 0 0 0 1 0 0v18a14 14 0 0 1 -14 14h-50a0 0 0 0 1 0 0v-18a14 14 0 0 1 14-14z" fill="#029532" transform="matrix(.84 -.543 .543 .84 -204.555 113.694)"/><path d="m80.762 339.142h66a0 0 0 0 1 0 0v32a0 0 0 0 1 0 0h-80a0 0 0 0 1 0 0v-18a14 14 0 0 1 14-14z" fill="#02a437" transform="matrix(.84 -.543 .543 .84 -175.599 114.734)"/><path d="m108.19 47.468h66a14 14 0 0 1 14 14v18a0 0 0 0 1 0 0h-80a0 0 0 0 1 0 0v-32a0 0 0 0 1 0 0z" fill="#0296e5" transform="matrix(.712 .702 -.702 .712 87.151 -85.738)"/><path d="m122.232 98.336h50a14 14 0 0 1 14 14v18a0 0 0 0 1 0 0h-50a14 14 0 0 1 -14-14v-18a0 0 0 0 1 0 0z" fill="#0276b4" transform="matrix(.712 .702 -.702 .712 124.583 -75.351)"/><path d="m120.275 149.2h80a0 0 0 0 1 0 0v32a0 0 0 0 1 0 0h-66a14 14 0 0 1 -14-14v-18a0 0 0 0 1 0 0z" fill="#0296e5" transform="matrix(.712 .702 -.702 .712 162.016 -64.964)"/><circle cx="256" cy="88" fill="#e82f3e" r="16"/><circle cx="456" cy="312" fill="#02a437" r="16"/><circle cx="192" cy="448" fill="#e82f3e" r="16"/><circle cx="64" cy="104" fill="#ea9d2d" r="16"/><circle cx="88" cy="256" fill="#fbb540" r="32"/><circle cx="384" cy="224" fill="#0296e5" r="24"/><circle cx="432" cy="72" fill="#e82f3e" r="32"/><path d="m263.6 194.734 13.315 40.979h43.085a7.987 7.987 0 0 1 4.695 14.448l-34.859 25.326 13.315 40.979a7.986 7.986 0 0 1 -12.29 8.929l-34.861-25.326-34.859 25.331a7.986 7.986 0 0 1 -12.29-8.929l13.315-40.979-34.859-25.326a7.987 7.987 0 0 1 4.7-14.448h43.083l13.315-40.979a7.986 7.986 0 0 1 15.195-.005z" fill="#fbb540"/><path d="m235.276 371.529h48v32h-48z" fill="#02a437" transform="matrix(.778 .628 -.628 .778 301.148 -76.852)"/><path d="m435.276 155.529h48v32h-48z" fill="#029532" transform="matrix(.778 .628 -.628 .778 209.832 -250.531)"/><path d="m307.529 132.724h48v32h-48z" fill="#02a437" transform="matrix(.628 -.778 .778 .628 7.492 313.132)"/><g fill="#e82f3e"><path d="m328 64a7.976 7.976 0 0 1 -5.657-2.343l-16-16a8 8 0 0 1 11.314-11.314l16 16a8 8 0 0 1 -5.657 13.657z"/><path d="m175.993 392a8 8 0 0 1 -6.649-12.439l16-24a8 8 0 0 1 13.312 8.876l-16 24a7.991 7.991 0 0 1 -6.663 3.563z"/><path d="m328 464a7.976 7.976 0 0 1 -5.657-2.343l-16-16a8 8 0 0 1 11.314-11.314l16 16a8 8 0 0 1 -5.657 13.657z"/><path d="m432 272a8 8 0 0 1 -5.657-13.657l16-16a8 8 0 0 1 11.314 11.314l-16 16a7.976 7.976 0 0 1 -5.657 2.343z"/><path d="m56 192a7.976 7.976 0 0 1 -5.657-2.343l-16-16a8 8 0 0 1 11.314-11.314l16 16a8 8 0 0 1 -5.657 13.657z"/></g></g></svg>