<svg id="Layer_1" enable-background="new 0 0 512 512" height="512" viewBox="0 0 512 512" width="512" xmlns="http://www.w3.org/2000/svg"><g><g><path d="m253.489 77.418c-6.692 0-12.792-4.511-14.523-11.292-5.431-21.271-24.556-36.126-46.508-36.126-14.774 0-28.5 6.648-37.66 18.239-5.136 6.501-14.57 7.605-21.069 2.469-6.5-5.136-7.605-14.569-2.469-21.069 14.885-18.836 37.191-29.639 61.198-29.639 35.672 0 66.75 24.14 75.576 58.704 2.049 8.027-2.796 16.195-10.823 18.245-1.245.318-2.493.469-3.722.469z" fill="#fdbf00"/></g><g><path d="m187.833 97.544c-2.817 0-5.665-.792-8.198-2.45-6.933-4.536-8.875-13.832-4.339-20.764 9.726-14.865 25.318-25.261 42.779-28.523 14.335-2.679 29.354-.444 42.288 6.292 7.347 3.827 10.201 12.886 6.375 20.233-3.827 7.347-12.885 10.202-20.233 6.375-7.01-3.652-15.148-4.862-22.919-3.411-9.464 1.768-17.915 7.403-23.186 15.459-2.879 4.399-7.675 6.789-12.567 6.789z" fill="#bee75e"/></g><g><g><g><path d="m256 512c-3.675 0-7.343-.01-11-.031-6.708-.038 3.619-15.863-3-15.969-6.388-.102-29.726 15.518-36 15.353-14.401-.377-28.463-.915-42-1.607-4.53-.231-3.594-19.481-8-19.746-8.812-.531-22.768 17.871-31 17.208-8.113-.654-15.917-1.371-23.359-2.148-5.837-.61-11.387-1.25-16.641-1.921-5.684-.725 5.979-18.346 1-19.138-7.426-1.181-31.053 14.427-36.84 13.107-18.025-4.111-27.42-8.583-32.426-15.438-3.621-4.958 18.266-54.849 18.266-54.849l55.658-98.821 51.342-67 4-31.261 96.93-172.1c2.658-4.719 7.653-7.639 13.07-7.639s10.412 2.92 13.07 7.639l18.226 32.361-7.146 28 22.353-1 15.207 27-7.71 27 22.353-1 15.77 28-11.537 28h27.307l15.107 26.822-12 27.178 26.744-1 15.77 28-3.514 29 18.721-2 15.279 27.128-3 29.912 18.135-3.04 41.757 74.139c.501.888.909 1.826 1.22 2.797 1.813 5.677.776 11.776-2.844 16.733-5.006 6.854-14.401 11.327-32.426 15.438-13.255 3.022-30.912 5.698-52.481 7.952-22.881 2.391-49.181 4.208-77.359 5.382-5.922.247-4.927-12.63-11-12.441-7.894.246-22.905 13.538-31 13.685-11.527.209-23.224.315-35.002.315z" fill="#b760ea"/></g></g></g><path d="m498.111 464.937c-.311-.972-.719-1.909-1.22-2.797l-41.756-74.14-18.135 3.041 3-29.912-15.279-27.129-18.721 2 3.514-29-15.77-28-26.744 1 12-27.178-15.107-26.822h-27.307l11.537-28-15.77-28-22.353 1 7.709-27-15.207-27-22.353 1 7.146-28-18.226-32.361c-2.658-4.719-7.653-7.639-13.069-7.639v462c11.778 0 23.475-.106 35-.315 8.095-.147 23.106-13.439 31-13.685 6.073-.189 5.078 12.688 11 12.441 28.179-1.174 54.478-2.991 77.359-5.382 21.569-2.253 39.226-4.929 52.481-7.952 18.025-4.111 27.42-8.583 32.426-15.438 3.621-4.957 4.658-11.056 2.845-16.732z" fill="#a24bdb"/><path d="m287.065 89.59-142.246 142.246-54.707 97.133 212.239-212.239z" fill="#d98ff8"/><path d="m317.637 143.871-282.233 282.233-20.296 36.036c-.5.888-.909 1.826-1.219 2.797-1.813 5.677-.776 11.776 2.844 16.733.755 1.033 1.623 2.007 2.592 2.939l313.597-313.597z" fill="#d98ff8"/><path d="m85.576 503.21 277.918-277.918-15.286-27.14-298.972 298.972c9.785 2.228 21.967 4.266 36.34 6.086z" fill="#d98ff8"/><path d="m163.899 509.741 230.168-230.168-15.286-27.14-254.698 254.698c12.588 1.025 25.922 1.899 39.816 2.61z" fill="#d98ff8"/><path d="m246.516 511.976 178.122-178.122-15.286-27.14-204.605 204.605c13.665.367 27.64.588 41.769.657z" fill="#d98ff8"/><g fill="#ca75f5"><path d="m332.9 510.444 122.31-122.31-15.286-27.14-150.72 150.721c14.909-.256 29.54-.682 43.696-1.271z"/><path d="m256 163.081 46.351-46.351-15.286-27.14-31.065 31.065z"/><path d="m256 247.934 76.922-76.923-15.285-27.14-61.637 61.637z"/><path d="m256 332.786 107.494-107.494-15.285-27.14-92.209 92.208z"/><path d="m256 417.64 138.067-138.067-15.286-27.14-122.781 122.781z"/><path d="m256 502.492 168.638-168.638-15.285-27.14-153.353 153.352z"/></g></g></svg>