<svg height="472pt" viewBox="-36 0 472 472.00001" width="472pt" xmlns="http://www.w3.org/2000/svg"><path d="m120 472c-2.570312 0-4.984375-1.238281-6.484375-3.324219-1.503906-2.085937-1.910156-4.765625-1.101563-7.203125l8.578126-25.746094c3.9375-11.707031 2.210937-24.582031-4.671876-34.839843l-5.921874-8.886719c-9.648438-14.363281-12.066407-32.402344-6.542969-48.800781l8.585937-25.71875c1.394532-4.199219 5.929688-6.46875 10.125-5.074219 4.199219 1.398438 6.46875 5.933594 5.074219 10.128906l-8.578125 25.730469c-3.941406 11.707031-2.210938 24.585937 4.679688 34.839844l5.859374 8.894531c9.648438 14.363281 12.0625 32.402344 6.535157 48.800781l-8.585938 25.742188c-1.089843 3.25-4.125 5.441406-7.550781 5.457031zm0 0" fill="#ff9811"/><path d="m285.128906 472c-2.929687.003906-5.628906-1.59375-7.03125-4.167969-.554687-1-1.144531-1.992187-1.785156-2.953125l-5.914062-8.878906c-9.648438-14.363281-12.066407-32.402344-6.542969-48.800781l8.585937-25.71875c1.394532-4.199219 5.929688-6.46875 10.125-5.074219 4.199219 1.398438 6.46875 5.933594 5.074219 10.128906l-8.578125 25.730469c-3.941406 11.707031-2.210938 24.585937 4.679688 34.839844l5.859374 8.894531c.894532 1.359375 1.742188 2.742188 2.511719 4.152344 2.109375 3.878906.675781 8.734375-3.203125 10.847656-1.15625.644531-2.457031.988281-3.78125 1zm0 0" fill="#ff9811"/><path d="m260.480469 349.039062-4.480469 34.960938h48l-4.480469-34.960938c-12.714843 3.949219-26.324219 3.949219-39.039062 0zm0 0" fill="#ea348b"/><path d="m260.480469 349.039062c2.535156.8125 5.128906 1.425782 7.757812 1.839844l-4.238281 33.121094h-8zm0 0" fill="#d32f7d"/><path d="m279.761719 64c-17.664063.054688-35.046875 4.421875-50.640625 12.71875 7.105468 16.167969 10.808594 33.621094 10.878906 51.28125-2.503906 53.113281-24.488281 103.4375-61.761719 141.359375 18.296875 41.175781 48.578125 78.28125 83.882813 88.054687 1.917968.53125 3.855468.960938 5.816406 1.328126 1.054688.195312 2.101562.425781 3.199219.570312 2.671875.378906 5.371093.589844 8.070312.625.3125 0 .617188.054688.929688.054688 3.085937-.015626 6.167969-.253907 9.222656-.710938l.984375-.136719c3.113281-.488281 6.191406-1.191406 9.207031-2.105469 57.082031-16.984374 100.519531-105.527343 100.449219-165.277343-.160156-66.242188-54-127.839844-120.238281-127.761719zm0 0" fill="#ed539d"/><path d="m280.105469 360c-.3125 0-.617188-.046875-.929688-.054688.273438 0 .542969.0625.800781.0625zm0 0" fill="#ed539d"/><path d="m267.9375 358.742188c1.054688.195312 2.101562.425781 3.199219.570312-1.097657-.113281-2.144531-.375-3.199219-.570312zm0 0" fill="#ffcd00"/><path d="m229.121094 76.71875c-18.882813-43.679688-60.722656-76.71875-109.121094-76.71875-66.238281 0-120 61.761719-120 128 0 59.601562 43.519531 147.921875 100.480469 165.039062 12.714843 3.949219 26.324219 3.949219 39.039062 0 14.574219-4.773437 27.832031-12.882812 38.71875-23.679687 37.273438-37.921875 59.257813-88.246094 61.761719-141.359375-.070312-17.660156-3.773438-35.113281-10.878906-51.28125zm0 0" fill="#ffcd00"/><path d="m116.480469 293.039062c3.753906 1.160157 7.613281 1.964844 11.519531 2.402344-2.648438.382813-5.324219.570313-8 .558594-6.617188-.019531-13.195312-1.015625-19.519531-2.960938-56.960938-17.117187-100.480469-105.4375-100.480469-165.039062 0-66.238281 53.761719-128 120-128 2.71875 0 5.359375.078125 8 .320312-62.558594 4.71875-112 64.160157-112 127.679688 0 59.601562 43.519531 147.921875 100.480469 165.039062zm0 0" fill="#e5b800"/><path d="m189.480469 257.457031c-3.511719 4.132813-7.238281 8.078125-11.160157 11.824219 17.9375 40.589844 47.527344 77.351562 82.160157 87.757812 6.324219 1.945313 12.902343 2.941407 19.519531 2.960938 2.675781.011719 5.351562-.175781 8-.558594-3.90625-.4375-7.765625-1.242187-11.519531-2.402344-37.976563-11.4375-69.886719-54.488281-87-99.582031zm0 0" fill="#d54b8d"/><path d="m100.480469 293.039062-4.480469 26.960938h48l-4.480469-26.960938c-12.714843 3.949219-26.324219 3.949219-39.039062 0zm0 0" fill="#cca400"/><path d="m100.480469 293.039062c2.519531.765626 5.085937 1.378907 7.679687 1.839844l-4.160156 25.121094h-8zm0 0" fill="#a38300"/><path d="m109.792969 270.398438c3.972656.007812 7.34375-2.902344 7.921875-6.835938.578125-3.929688-1.8125-7.6875-5.617188-8.828125-16.53125-4.957031-34.472656-23.101563-49.25-49.757813-2.140625-3.867187-7.007812-5.265624-10.875-3.125-3.867187 2.140626-5.265625 7.011719-3.125 10.875 16.800782 30.28125 38.160156 51.203126 58.640625 57.328126.746094.226562 1.523438.34375 2.304688.34375zm0 0" fill="#cca400"/><path d="m192.40625 92.609375c4.949219 11.144531 7.535156 23.195313 7.59375 35.390625 0 4.417969 3.582031 8 8 8s8-3.582031 8-8c-.054688-14.386719-3.089844-28.605469-8.910156-41.761719-7.417969-17.347656-19.234375-32.460937-34.289063-43.839843-3.535156-2.648438-8.550781-1.933594-11.199219 1.601562-2.652343 3.535156-1.9375 8.550781 1.597657 11.199219 12.832031 9.707031 22.902343 22.605469 29.207031 37.410156zm0 0" fill="#f1f2f2"/><path d="m120 40c7.292969.027344 14.53125 1.257812 21.425781 3.640625 4.183594 1.421875 8.726563-.816406 10.148438-5 1.425781-4.183594-.8125-8.730469-5-10.152344-8.550781-2.945312-17.527344-4.460937-26.574219-4.488281-4.417969 0-8 3.582031-8 8s3.582031 8 8 8zm0 0" fill="#f1f2f2"/><path d="m272.097656 318.761719c-16.53125-4.960938-34.472656-23.105469-49.25-49.761719-2.140625-3.867188-7.007812-5.265625-10.875-3.125-3.867187 2.140625-5.265625 7.011719-3.125 10.878906 16.800782 30.277344 38.160156 51.199219 58.640625 57.324219 2.753907.878906 5.761719.203125 7.875-1.765625 2.117188-1.96875 3.003907-4.925781 2.328125-7.730469-.679687-2.808593-2.816406-5.035156-5.59375-5.820312zm0 0" fill="#ea348b"/><g fill="#f1f2f2"><path d="m332.800781 106.398438c-3.535156-2.648438-8.550781-1.933594-11.199219 1.601562-2.652343 3.535156-1.9375 8.550781 1.597657 11.199219 12.820312 9.699219 22.882812 22.578125 29.191406 37.359375 4.960937 11.160156 7.550781 23.230468 7.609375 35.441406 0 4.417969 3.582031 8 8 8s8-3.582031 8-8c-.054688-14.386719-3.089844-28.605469-8.910156-41.761719-7.417969-17.347656-19.234375-32.460937-34.289063-43.839843zm0 0"/><path d="m306.574219 92.488281c-8.550781-2.945312-17.527344-4.460937-26.574219-4.488281-4.417969 0-8 3.582031-8 8s3.582031 8 8 8c7.292969.027344 14.53125 1.257812 21.425781 3.640625 4.183594 1.421875 8.726563-.816406 10.148438-5 1.425781-4.183594-.8125-8.730469-5-10.152344zm0 0"/></g></svg>